<?xml version="1.0" encoding="iso-8859-1"?>
<!-- Uploaded to: SVG Repo, www.svgrepo.com, Generator: SVG Repo Mixer Tools -->
<svg height="800px" width="800px" version="1.1" id="Layer_1" xmlns="http://www.w3.org/2000/svg" xmlns:xlink="http://www.w3.org/1999/xlink" 
	 viewBox="0 0 512 512" xml:space="preserve">
<g transform="translate(1 1)">
	<path style="fill:#FFDD09;" d="M400.067,502.467H109.933c-56.32,0-102.4-46.08-102.4-102.4V109.933
		c0-56.32,46.08-102.4,102.4-102.4h290.133c56.32,0,102.4,46.08,102.4,102.4v290.133
		C502.467,456.387,456.387,502.467,400.067,502.467L400.067,502.467z"/>
	<path style="fill:#FD9808;" d="M400.067,7.533h-25.6c56.32,0,102.4,46.08,102.4,102.4v290.133c0,56.32-46.08,102.4-102.4,102.4
		h25.6c56.32,0,102.4-46.08,102.4-102.4V109.933C502.467,53.613,456.387,7.533,400.067,7.533"/>
	<path style="fill:#FFFFFF;" d="M109.933,7.533h25.6c-56.32,0-102.4,46.08-102.4,102.4v290.133c0,56.32,46.08,102.4,102.4,102.4
		h-25.6c-56.32,0-102.4-46.08-102.4-102.4V109.933C7.533,53.613,53.613,7.533,109.933,7.533"/>
	<path d="M161.133,348.867c-2.56,0-4.267-0.853-5.973-2.56l-84.48-84.48c-0.853-0.853-1.707-1.707-2.56-3.413
		c-1.707-3.413-0.853-6.827,1.707-9.387l85.333-85.333c3.413-3.413,8.533-3.413,11.947,0s3.413,8.533,0,11.947L87.747,255
		l79.36,79.36c3.413,3.413,3.413,8.533,0,11.947C165.4,348.013,163.693,348.867,161.133,348.867z"/>
	<path d="M348.867,348.867c-2.56,0-4.267-0.853-5.973-2.56c-3.413-3.413-3.413-8.533,0-11.947l79.36-79.36l-79.36-79.36
		c-3.413-3.413-3.413-8.533,0-11.947c3.413-3.413,8.533-3.413,11.947,0l84.48,84.48c0.853,0.853,1.707,1.707,2.56,3.413
		c1.707,3.413,0.853,6.827-1.707,9.387l-85.333,85.333C353.987,348.013,351.427,348.867,348.867,348.867z"/>
	<path d="M400.067,511H109.933C48.493,511-1,461.507-1,400.067V109.933C-1,48.493,48.493-1,109.933-1h290.133
		C461.507-1,511,48.493,511,109.933v290.133C511,461.507,461.507,511,400.067,511z M109.933,16.067
		c-52.053,0-93.867,41.813-93.867,93.867v290.133c0,52.053,41.813,93.867,93.867,93.867h290.133
		c52.053,0,93.867-41.813,93.867-93.867V109.933c0-52.053-41.813-93.867-93.867-93.867H109.933z"/>
	<path d="M255,301.933c-5.12,0-8.533-3.413-8.533-8.533v-4.267c0-26.453,11.093-51.2,30.72-68.267
		c7.68-6.827,11.947-16.213,11.947-25.6c0-18.773-15.36-34.133-34.133-34.133s-34.133,15.36-34.133,34.133
		c0,5.12-3.413,8.533-8.533,8.533c-5.12,0-8.533-3.413-8.533-8.533c0-28.16,23.04-51.2,51.2-51.2s51.2,23.04,51.2,51.2
		c0,15.36-6.827,29.013-17.92,39.253c-15.36,12.8-24.747,33.28-24.747,54.613v4.267C263.533,298.52,260.12,301.933,255,301.933z"/>
	<path d="M267.8,336.067c0-6.827-5.973-12.8-12.8-12.8c-6.827,0-12.8,5.973-12.8,12.8s5.973,12.8,12.8,12.8
		C261.827,348.867,267.8,342.893,267.8,336.067"/>
</g>
</svg>